********** Cracks.2009.DVDRiP.XviD.OPTIONAL-NORDIC_SUB-Zen_Bud **********

Format                           : AVI
File size                        : 817 MiB
Duration                         : 1h 39mn
Overall bit rate                 : 1 145 Kbps

Video

Format                           : MPEG-4 Visual
Codec ID/Hint                    : XviD
Duration                         : 1h 39mn
Bit rate                         : 1 004 Kbps
Width                            : 720 pixels
Height                           : 576 pixels
Display aspect ratio             : 16:9
Stream size                      : 717 MiB (88%)
Writing library                  : XviD 1.1.2 (UTC 2006-11-01)

Audio

Format                           : MPEG Audio
Codec ID/Hint                    : MP3
Duration                         : 1h 39mn
Bit rate                         : 128 Kbps
Channel(s)                       : 2 channels
Sampling rate                    : 48.0 KHz
Stream size                      : 91.4 MiB (11%)
Language                         : English

Text #1
Language                         : Swedish

Text #2
Language                         : Norwegian

Text #3
Language                         : Danish

Text #4
Language                         : Finnish


A look at the lives and relationships among girls 
 at an elite British boarding school. 

